<svg width="174" height="48" viewBox="0 0 174 48" fill="none" xmlns="http://www.w3.org/2000/svg">
<g clip-path="url(#clip0_943_570)">
<path d="M44.671 47.0002H42.3067C32.8497 47.0002 25.1611 39.3447 25.1611 29.9284V17.9859C25.1611 15.3447 27.3139 13.2012 29.9665 13.2012C32.6191 13.2012 34.7719 15.3447 34.7719 17.9859V29.9284C34.7719 34.0624 38.1549 37.4308 42.3067 37.4308H44.671C47.3236 37.4308 49.4764 39.5744 49.4764 42.2155C49.4764 44.8567 47.3332 47.0002 44.671 47.0002Z" fill="#067DF9"/>
<path d="M42.7966 33.8507C40.144 33.8507 37.9912 31.7072 37.9912 29.066V18.1186C37.9912 8.70238 45.6798 1.04688 55.1368 1.04688C57.7894 1.04688 59.9422 3.19042 59.9422 5.83156C59.9422 8.47271 57.7894 10.6163 55.1368 10.6163C50.985 10.6163 47.602 13.9847 47.602 18.1186V29.066C47.602 31.7072 45.4588 33.8507 42.7966 33.8507Z" fill="#067DF9"/>
<path d="M55.1366 22.8174C57.8171 22.8174 59.9901 20.6538 59.9901 17.9849C59.9901 15.3159 57.8171 13.1523 55.1366 13.1523C52.4562 13.1523 50.2832 15.3159 50.2832 17.9849C50.2832 20.6538 52.4562 22.8174 55.1366 22.8174Z" fill="#067DF9"/>
<path d="M26.5738 10.6163H4.80538C2.15281 10.6163 0 8.47271 0 5.83156C0 3.19042 2.15281 1.04688 4.80538 1.04688H26.5738C29.2263 1.04688 31.3791 3.19042 31.3791 5.83156C31.3791 8.47271 29.2263 10.6163 26.5738 10.6163Z" fill="url(#paint0_linear_943_570)"/>
<path d="M17.1456 33.8507C14.493 33.8507 12.3402 31.7072 12.3402 29.066V18.1186C12.3402 13.9847 8.95723 10.6163 4.80538 10.6163C2.15281 10.6163 0 8.47271 0 5.83156C0 3.19042 2.15281 1.04688 4.80538 1.04688C14.2624 1.04688 21.951 8.70238 21.951 18.1186V29.066C21.951 31.7072 19.7982 33.8507 17.1456 33.8507Z" fill="#067DF9"/>
<path d="M26.5741 10.6651C29.2546 10.6651 31.4276 8.50147 31.4276 5.83254C31.4276 3.1636 29.2546 1 26.5741 1C23.8937 1 21.7207 3.1636 21.7207 5.83254C21.7207 8.50147 23.8937 10.6651 26.5741 10.6651Z" fill="#067DF9"/>
</g>
<path d="M75.232 4.8H83.28L83.264 6.896H77.76V9.648H82.816V11.76H77.76V16H75.232V4.8ZM92.8756 7.392V16H90.4276V14.48C89.841 15.5573 88.881 16.096 87.5476 16.096C86.5983 16.096 85.841 15.8027 85.2756 15.216C84.721 14.6187 84.4436 13.8133 84.4436 12.8V7.392H86.9076V12.096C86.9076 12.64 87.0516 13.0667 87.3396 13.376C87.6276 13.6853 88.0223 13.84 88.5236 13.84C89.1103 13.8293 89.5743 13.6213 89.9156 13.216C90.257 12.8107 90.4276 12.288 90.4276 11.648V7.392H92.8756ZM100.702 7.296C101.662 7.296 102.425 7.59467 102.99 8.192C103.566 8.78933 103.854 9.58933 103.854 10.592V16H101.39V11.312C101.39 10.768 101.235 10.3413 100.926 10.032C100.627 9.712 100.217 9.552 99.6941 9.552C99.0861 9.56267 98.6061 9.776 98.2541 10.192C97.9021 10.5973 97.7261 11.12 97.7261 11.76V16H95.2621V7.392H97.7261V8.896C98.3235 7.85067 99.3155 7.31733 100.702 7.296ZM114.477 4.128V16H112.029V14.736C111.72 15.184 111.336 15.5253 110.877 15.76C110.418 15.984 109.896 16.096 109.309 16.096C108.498 16.096 107.784 15.9147 107.165 15.552C106.557 15.1787 106.082 14.656 105.741 13.984C105.41 13.312 105.245 12.5387 105.245 11.664C105.245 10.8 105.41 10.0373 105.741 9.376C106.072 8.71467 106.541 8.20267 107.149 7.84C107.757 7.47733 108.456 7.296 109.245 7.296C110.461 7.296 111.389 7.74933 112.029 8.656V4.128H114.477ZM109.885 14.112C110.514 14.112 111.026 13.8933 111.421 13.456C111.826 13.008 112.029 12.432 112.029 11.728C112.029 11.024 111.826 10.4533 111.421 10.016C111.026 9.568 110.514 9.344 109.885 9.344C109.245 9.344 108.722 9.568 108.317 10.016C107.922 10.4533 107.72 11.024 107.709 11.728C107.72 12.432 107.922 13.008 108.317 13.456C108.722 13.8933 109.245 14.112 109.885 14.112ZM119.398 8.944C119.697 8.41067 120.086 8.00533 120.566 7.728C121.046 7.45067 121.606 7.30667 122.246 7.296V9.616C122.161 9.60533 122.033 9.6 121.862 9.6C121.105 9.6 120.502 9.808 120.054 10.224C119.617 10.6293 119.398 11.1733 119.398 11.856V16H116.934V7.392H119.398V8.944ZM128.317 16V14.992C128.029 15.3547 127.655 15.632 127.197 15.824C126.738 16.016 126.21 16.112 125.613 16.112C124.706 16.112 123.986 15.8667 123.453 15.376C122.919 14.8747 122.653 14.224 122.653 13.424C122.653 12.6133 122.935 11.984 123.501 11.536C124.077 11.0773 124.887 10.8427 125.933 10.832H128.301V10.672C128.301 10.2133 128.146 9.86133 127.837 9.616C127.538 9.36 127.095 9.232 126.509 9.232C125.709 9.232 124.855 9.48267 123.949 9.984L123.181 8.288C123.863 7.94667 124.503 7.696 125.101 7.536C125.698 7.376 126.354 7.296 127.069 7.296C128.221 7.296 129.111 7.568 129.741 8.112C130.381 8.656 130.706 9.41333 130.717 10.384L130.733 16H128.317ZM126.301 14.352C126.813 14.352 127.255 14.2293 127.629 13.984C128.002 13.7387 128.226 13.4293 128.301 13.056V12.288H126.365C125.885 12.288 125.527 12.368 125.293 12.528C125.069 12.6773 124.957 12.9227 124.957 13.264C124.957 13.5947 125.074 13.8613 125.309 14.064C125.554 14.256 125.885 14.352 126.301 14.352ZM132.856 7.392H135.32V16H132.856V7.392ZM134.072 3.568C134.467 3.568 134.787 3.696 135.032 3.952C135.288 4.208 135.416 4.53867 135.416 4.944C135.416 5.34933 135.288 5.68 135.032 5.936C134.787 6.192 134.467 6.32 134.072 6.32C133.688 6.32 133.368 6.192 133.112 5.936C132.867 5.66933 132.744 5.33867 132.744 4.944C132.744 4.53867 132.867 4.208 133.112 3.952C133.368 3.696 133.688 3.568 134.072 3.568ZM143.108 9.92C142.639 9.65333 142.175 9.45067 141.716 9.312C141.257 9.16267 140.847 9.088 140.484 9.088C140.185 9.088 139.945 9.14133 139.764 9.248C139.583 9.35467 139.492 9.51467 139.492 9.728C139.492 9.96267 139.615 10.144 139.86 10.272C140.105 10.4 140.505 10.544 141.06 10.704C141.668 10.8853 142.169 11.0667 142.564 11.248C142.959 11.4187 143.3 11.68 143.588 12.032C143.876 12.3733 144.02 12.8267 144.02 13.392C144.02 14.2453 143.689 14.912 143.028 15.392C142.377 15.8613 141.54 16.096 140.516 16.096C139.812 16.096 139.135 15.9947 138.484 15.792C137.833 15.5787 137.268 15.28 136.788 14.896L137.588 13.232C138.025 13.5733 138.511 13.84 139.044 14.032C139.588 14.2133 140.1 14.304 140.58 14.304C140.911 14.304 141.172 14.2507 141.364 14.144C141.567 14.0267 141.668 13.856 141.668 13.632C141.668 13.3867 141.54 13.1947 141.284 13.056C141.039 12.9173 140.639 12.768 140.084 12.608C139.497 12.4373 139.007 12.2667 138.612 12.096C138.228 11.9253 137.897 11.6693 137.62 11.328C137.343 10.976 137.204 10.5227 137.204 9.968C137.204 9.11467 137.524 8.45333 138.164 7.984C138.804 7.51467 139.615 7.28 140.596 7.28C141.183 7.28 141.769 7.36533 142.356 7.536C142.943 7.696 143.476 7.93067 143.956 8.24L143.108 9.92ZM145.668 7.392H148.132V16H145.668V7.392ZM146.884 3.568C147.279 3.568 147.599 3.696 147.844 3.952C148.1 4.208 148.228 4.53867 148.228 4.944C148.228 5.34933 148.1 5.68 147.844 5.936C147.599 6.192 147.279 6.32 146.884 6.32C146.5 6.32 146.18 6.192 145.924 5.936C145.679 5.66933 145.556 5.33867 145.556 4.944C145.556 4.53867 145.679 4.208 145.924 3.952C146.18 3.696 146.5 3.568 146.884 3.568ZM155.937 7.296C156.897 7.296 157.659 7.59467 158.225 8.192C158.801 8.78933 159.089 9.58933 159.089 10.592V16H156.625V11.312C156.625 10.768 156.47 10.3413 156.161 10.032C155.862 9.712 155.451 9.552 154.929 9.552C154.321 9.56267 153.841 9.776 153.489 10.192C153.137 10.5973 152.961 11.12 152.961 11.76V16H150.497V7.392H152.961V8.896C153.558 7.85067 154.55 7.31733 155.937 7.296ZM169.279 7.392V15.2C169.279 16.0107 169.087 16.7147 168.703 17.312C168.319 17.92 167.781 18.384 167.087 18.704C166.394 19.0347 165.594 19.2 164.687 19.2C163.983 19.2 163.311 19.0987 162.671 18.896C162.042 18.6933 161.466 18.416 160.943 18.064L161.855 16.336C162.666 16.912 163.557 17.2 164.527 17.2C165.231 17.2 165.791 17.024 166.207 16.672C166.623 16.3307 166.831 15.8667 166.831 15.28V14.304C166.543 14.7093 166.181 15.0187 165.743 15.232C165.306 15.4453 164.805 15.552 164.239 15.552C163.503 15.552 162.847 15.3813 162.271 15.04C161.706 14.688 161.263 14.1973 160.943 13.568C160.634 12.9387 160.479 12.2133 160.479 11.392C160.479 10.5813 160.634 9.872 160.943 9.264C161.263 8.64533 161.706 8.16533 162.271 7.824C162.847 7.48267 163.503 7.312 164.239 7.312C164.794 7.312 165.29 7.424 165.727 7.648C166.165 7.86133 166.533 8.16533 166.831 8.56V7.392H169.279ZM164.815 13.68C165.413 13.68 165.898 13.4773 166.271 13.072C166.645 12.656 166.831 12.1173 166.831 11.456C166.831 10.7947 166.645 10.256 166.271 9.84C165.898 9.424 165.413 9.216 164.815 9.216C164.218 9.216 163.733 9.424 163.359 9.84C162.986 10.256 162.794 10.7947 162.783 11.456C162.794 12.1173 162.981 12.656 163.343 13.072C163.717 13.4773 164.207 13.68 164.815 13.68ZM82.608 25.92C82.032 25.568 81.4187 25.2907 80.768 25.088C80.128 24.8747 79.5787 24.768 79.12 24.768C78.6827 24.768 78.336 24.848 78.08 25.008C77.824 25.168 77.696 25.4027 77.696 25.712C77.696 26.1067 77.8773 26.4107 78.24 26.624C78.6133 26.8267 79.184 27.04 79.952 27.264C80.72 27.488 81.3493 27.712 81.84 27.936C82.3413 28.16 82.768 28.496 83.12 28.944C83.472 29.392 83.648 29.984 83.648 30.72C83.648 31.4347 83.456 32.0533 83.072 32.576C82.6987 33.088 82.1813 33.4773 81.52 33.744C80.8587 34.0107 80.1067 34.144 79.264 34.144C78.3573 34.144 77.4667 33.984 76.592 33.664C75.7173 33.344 74.96 32.9067 74.32 32.352L75.328 30.288C75.8933 30.8 76.544 31.2107 77.28 31.52C78.016 31.8293 78.688 31.984 79.296 31.984C79.8187 31.984 80.224 31.888 80.512 31.696C80.8107 31.504 80.96 31.2267 80.96 30.864C80.96 30.576 80.8587 30.3413 80.656 30.16C80.464 29.968 80.2133 29.8133 79.904 29.696C79.6053 29.5787 79.1893 29.4453 78.656 29.296C77.888 29.0827 77.2587 28.8693 76.768 28.656C76.288 28.4427 75.872 28.1173 75.52 27.68C75.168 27.2427 74.992 26.6613 74.992 25.936C74.992 25.264 75.1733 24.6773 75.536 24.176C75.8987 23.664 76.4053 23.2747 77.056 23.008C77.7067 22.7307 78.464 22.592 79.328 22.592C80.096 22.592 80.8533 22.704 81.6 22.928C82.3467 23.152 83.008 23.4507 83.584 23.824L82.608 25.92ZM89.2595 25.312C90.1662 25.312 90.9662 25.4933 91.6595 25.856C92.3635 26.2187 92.9075 26.7307 93.2915 27.392C93.6755 28.0533 93.8675 28.8213 93.8675 29.696C93.8675 30.56 93.6755 31.328 93.2915 32C92.9075 32.6613 92.3635 33.1787 91.6595 33.552C90.9662 33.9147 90.1662 34.096 89.2595 34.096C88.3422 34.096 87.5315 33.9147 86.8275 33.552C86.1342 33.1787 85.5955 32.6613 85.2115 32C84.8275 31.328 84.6355 30.56 84.6355 29.696C84.6355 28.8213 84.8275 28.0533 85.2115 27.392C85.5955 26.7307 86.1342 26.2187 86.8275 25.856C87.5315 25.4933 88.3422 25.312 89.2595 25.312ZM89.2595 27.36C88.6195 27.36 88.0968 27.5787 87.6915 28.016C87.2968 28.4533 87.0995 29.024 87.0995 29.728C87.0995 30.432 87.2968 31.0027 87.6915 31.44C88.0968 31.8773 88.6195 32.096 89.2595 32.096C89.8888 32.096 90.4008 31.8773 90.7955 31.44C91.2008 31.0027 91.4035 30.432 91.4035 29.728C91.4035 29.024 91.2008 28.4533 90.7955 28.016C90.4008 27.5787 89.8888 27.36 89.2595 27.36ZM95.5765 22.128H98.0405V34H95.5765V22.128ZM108.688 25.392V34H106.24V32.48C105.653 33.5573 104.693 34.096 103.36 34.096C102.411 34.096 101.653 33.8027 101.088 33.216C100.533 32.6187 100.256 31.8133 100.256 30.8V25.392H102.72V30.096C102.72 30.64 102.864 31.0667 103.152 31.376C103.44 31.6853 103.835 31.84 104.336 31.84C104.923 31.8293 105.387 31.6213 105.728 31.216C106.069 30.8107 106.24 30.288 106.24 29.648V25.392H108.688ZM116.403 33.52C116.083 33.712 115.725 33.8613 115.331 33.968C114.947 34.064 114.557 34.112 114.163 34.112C113.363 34.112 112.712 33.8827 112.211 33.424C111.709 32.9653 111.459 32.3093 111.459 31.456V27.472H110.259V25.776H111.459V23.408H113.907V25.776H116.243V27.488H113.907V31.04C113.907 31.7013 114.168 32.032 114.691 32.032C115.053 32.032 115.453 31.9253 115.891 31.712L116.403 33.52ZM117.887 25.392H120.351V34H117.887V25.392ZM119.103 21.568C119.498 21.568 119.818 21.696 120.063 21.952C120.319 22.208 120.447 22.5387 120.447 22.944C120.447 23.3493 120.319 23.68 120.063 23.936C119.818 24.192 119.498 24.32 119.103 24.32C118.719 24.32 118.399 24.192 118.143 23.936C117.898 23.6693 117.775 23.3387 117.775 22.944C117.775 22.5387 117.898 22.208 118.143 21.952C118.399 21.696 118.719 21.568 119.103 21.568ZM126.603 25.312C127.51 25.312 128.31 25.4933 129.003 25.856C129.707 26.2187 130.251 26.7307 130.635 27.392C131.019 28.0533 131.211 28.8213 131.211 29.696C131.211 30.56 131.019 31.328 130.635 32C130.251 32.6613 129.707 33.1787 129.003 33.552C128.31 33.9147 127.51 34.096 126.603 34.096C125.686 34.096 124.875 33.9147 124.171 33.552C123.478 33.1787 122.939 32.6613 122.555 32C122.171 31.328 121.979 30.56 121.979 29.696C121.979 28.8213 122.171 28.0533 122.555 27.392C122.939 26.7307 123.478 26.2187 124.171 25.856C124.875 25.4933 125.686 25.312 126.603 25.312ZM126.603 27.36C125.963 27.36 125.441 27.5787 125.035 28.016C124.641 28.4533 124.443 29.024 124.443 29.728C124.443 30.432 124.641 31.0027 125.035 31.44C125.441 31.8773 125.963 32.096 126.603 32.096C127.233 32.096 127.745 31.8773 128.139 31.44C128.545 31.0027 128.747 30.432 128.747 29.728C128.747 29.024 128.545 28.4533 128.139 28.016C127.745 27.5787 127.233 27.36 126.603 27.36ZM138.28 25.296C139.24 25.296 140.003 25.5947 140.568 26.192C141.144 26.7893 141.432 27.5893 141.432 28.592V34H138.968V29.312C138.968 28.768 138.814 28.3413 138.504 28.032C138.206 27.712 137.795 27.552 137.272 27.552C136.664 27.5627 136.184 27.776 135.832 28.192C135.48 28.5973 135.304 29.12 135.304 29.76V34H132.84V25.392H135.304V26.896C135.902 25.8507 136.894 25.3173 138.28 25.296ZM148.983 27.92C148.514 27.6533 148.05 27.4507 147.591 27.312C147.132 27.1627 146.722 27.088 146.359 27.088C146.06 27.088 145.82 27.1413 145.639 27.248C145.458 27.3547 145.367 27.5147 145.367 27.728C145.367 27.9627 145.49 28.144 145.735 28.272C145.98 28.4 146.38 28.544 146.935 28.704C147.543 28.8853 148.044 29.0667 148.439 29.248C148.834 29.4187 149.175 29.68 149.463 30.032C149.751 30.3733 149.895 30.8267 149.895 31.392C149.895 32.2453 149.564 32.912 148.903 33.392C148.252 33.8613 147.415 34.096 146.391 34.096C145.687 34.096 145.01 33.9947 144.359 33.792C143.708 33.5787 143.143 33.28 142.663 32.896L143.463 31.232C143.9 31.5733 144.386 31.84 144.919 32.032C145.463 32.2133 145.975 32.304 146.455 32.304C146.786 32.304 147.047 32.2507 147.239 32.144C147.442 32.0267 147.543 31.856 147.543 31.632C147.543 31.3867 147.415 31.1947 147.159 31.056C146.914 30.9173 146.514 30.768 145.959 30.608C145.372 30.4373 144.882 30.2667 144.487 30.096C144.103 29.9253 143.772 29.6693 143.495 29.328C143.218 28.976 143.079 28.5227 143.079 27.968C143.079 27.1147 143.399 26.4533 144.039 25.984C144.679 25.5147 145.49 25.28 146.471 25.28C147.058 25.28 147.644 25.3653 148.231 25.536C148.818 25.696 149.351 25.9307 149.831 26.24L148.983 27.92Z" fill="#067DF9"/>
<defs>
<linearGradient id="paint0_linear_943_570" x1="0" y1="5.83338" x2="31.3758" y2="5.83338" gradientUnits="userSpaceOnUse">
<stop stop-color="white"/>
<stop offset="1" stop-color="#067DF9"/>
</linearGradient>
<clipPath id="clip0_943_570">
<rect width="60" height="46" fill="white" transform="translate(0 1)"/>
</clipPath>
</defs>
</svg>
