<svg width="251" height="70" viewBox="0 0 251 70" fill="none" xmlns="http://www.w3.org/2000/svg">
<g clip-path="url(#clip0_538_658)">
<path d="M64.4394 67.7991H61.0289C47.3869 67.7991 36.2959 56.7558 36.2959 43.1725V25.945C36.2959 22.1351 39.4014 19.043 43.2278 19.043C47.0542 19.043 50.1597 22.1351 50.1597 25.945V43.1725C50.1597 49.1359 55.0398 53.995 61.0289 53.995H64.4394C68.2658 53.995 71.3713 57.0871 71.3713 60.897C71.3713 64.7069 68.2797 67.7991 64.4394 67.7991Z" fill="white"/>
<path d="M61.7356 48.8322C57.9092 48.8322 54.8037 45.7401 54.8037 41.9301V26.1382C54.8037 12.555 65.8948 1.51172 79.5367 1.51172C83.3631 1.51172 86.4686 4.60384 86.4686 8.41377C86.4686 12.2237 83.3631 15.3158 79.5367 15.3158C73.5476 15.3158 68.6675 20.1749 68.6675 26.1382V41.9301C68.6675 45.7401 65.5759 48.8322 61.7356 48.8322Z" fill="white"/>
<path d="M79.5374 32.9148C83.404 32.9148 86.5386 29.7937 86.5386 25.9437C86.5386 22.0937 83.404 18.9727 79.5374 18.9727C75.6707 18.9727 72.5361 22.0937 72.5361 25.9437C72.5361 29.7937 75.6707 32.9148 79.5374 32.9148Z" fill="white"/>
<path d="M38.3334 15.3158H6.9319C3.10549 15.3158 0 12.2237 0 8.41377C0 4.60384 3.10549 1.51172 6.9319 1.51172H38.3334C42.1598 1.51172 45.2653 4.60384 45.2653 8.41377C45.2653 12.2237 42.1598 15.3158 38.3334 15.3158Z" fill="url(#paint0_linear_538_658)"/>
<path d="M24.733 48.8322C20.9066 48.8322 17.8011 45.7401 17.8011 41.9301V26.1382C17.8011 20.1749 12.9211 15.3158 6.9319 15.3158C3.10549 15.3158 0 12.2237 0 8.41377C0 4.60384 3.10549 1.51172 6.9319 1.51172C20.5739 1.51172 31.6649 12.555 31.6649 26.1382V41.9301C31.6649 45.7401 28.5594 48.8322 24.733 48.8322Z" fill="white"/>
<path d="M38.3332 15.3836C42.1999 15.3836 45.3345 12.2625 45.3345 8.41248C45.3345 4.56246 42.1999 1.44141 38.3332 1.44141C34.4666 1.44141 31.332 4.56246 31.332 8.41248C31.332 12.2625 34.4666 15.3836 38.3332 15.3836Z" fill="white"/>
</g>
<path d="M108.524 6.28508H120.134L120.111 9.30862H112.171V13.2785H119.464V16.3251H112.171V22.4414H108.524V6.28508ZM133.976 10.0241V22.4414H130.444V20.2488C129.598 21.8028 128.213 22.5799 126.29 22.5799C124.92 22.5799 123.828 22.1567 123.012 21.3105C122.212 20.4488 121.812 19.2871 121.812 17.8253V10.0241H125.367V16.8098C125.367 17.5945 125.574 18.21 125.99 18.6562C126.405 19.1024 126.975 19.3255 127.698 19.3255C128.544 19.3102 129.213 19.0101 129.706 18.4254C130.198 17.8407 130.444 17.0867 130.444 16.1635V10.0241H133.976ZM145.266 9.88564C146.65 9.88564 147.751 10.3165 148.566 11.1781C149.397 12.0398 149.813 13.1938 149.813 14.6402V22.4414H146.258V15.6788C146.258 14.8941 146.035 14.2786 145.589 13.8324C145.158 13.3708 144.566 13.14 143.812 13.14C142.935 13.1554 142.242 13.4631 141.734 14.0632C141.227 14.6479 140.973 15.4019 140.973 16.3251V22.4414H137.418V10.0241H140.973V12.1937C141.834 10.6858 143.265 9.91641 145.266 9.88564ZM165.136 5.3157V22.4414H161.605V20.618C161.159 21.2643 160.605 21.7567 159.943 22.0952C159.281 22.4183 158.527 22.5799 157.681 22.5799C156.512 22.5799 155.481 22.3183 154.588 21.7952C153.711 21.2566 153.027 20.5026 152.534 19.5333C152.057 18.5639 151.819 17.4483 151.819 16.1866C151.819 14.9403 152.057 13.8401 152.534 12.8861C153.011 11.9321 153.688 11.1935 154.565 10.6704C155.442 10.1472 156.45 9.88564 157.589 9.88564C159.343 9.88564 160.682 10.5396 161.605 11.8475V5.3157H165.136ZM158.512 19.7179C159.42 19.7179 160.158 19.4025 160.728 18.7716C161.312 18.1254 161.605 17.2945 161.605 16.2789C161.605 15.2634 161.312 14.4402 160.728 13.8093C160.158 13.1631 159.42 12.8399 158.512 12.8399C157.589 12.8399 156.835 13.1631 156.25 13.8093C155.681 14.4402 155.388 15.2634 155.373 16.2789C155.388 17.2945 155.681 18.1254 156.25 18.7716C156.835 19.4025 157.589 19.7179 158.512 19.7179ZM172.235 12.2629C172.666 11.4936 173.227 10.9089 173.92 10.5088C174.612 10.1087 175.42 9.90102 176.343 9.88564V13.2323C176.22 13.2169 176.036 13.2092 175.789 13.2092C174.697 13.2092 173.828 13.5093 173.181 14.1094C172.55 14.6941 172.235 15.4788 172.235 16.4636V22.4414H168.681V10.0241H172.235V12.2629ZM185.1 22.4414V20.9873C184.685 21.5105 184.146 21.9106 183.485 22.1875C182.823 22.4645 182.061 22.603 181.2 22.603C179.892 22.603 178.853 22.2491 178.084 21.5413C177.315 20.8181 176.93 19.8795 176.93 18.7255C176.93 17.556 177.338 16.6482 178.153 16.002C178.984 15.3403 180.153 15.0018 181.661 14.9864H185.077V14.7556C185.077 14.094 184.854 13.5862 184.408 13.2323C183.977 12.863 183.339 12.6784 182.492 12.6784C181.338 12.6784 180.107 13.04 178.799 13.7632L177.692 11.3166C178.676 10.8242 179.6 10.4626 180.461 10.2318C181.323 10.001 182.269 9.88564 183.3 9.88564C184.962 9.88564 186.247 10.278 187.155 11.0627C188.078 11.8475 188.547 12.9399 188.562 14.3402L188.586 22.4414H185.1ZM182.192 20.0641C182.931 20.0641 183.569 19.8872 184.108 19.5333C184.646 19.1794 184.97 18.7331 185.077 18.1946V17.0867H182.285C181.592 17.0867 181.077 17.2021 180.738 17.4329C180.415 17.6484 180.253 18.0023 180.253 18.4946C180.253 18.9716 180.423 19.3563 180.761 19.6487C181.115 19.9256 181.592 20.0641 182.192 20.0641ZM191.648 10.0241H195.203V22.4414H191.648V10.0241ZM193.402 4.50789C193.972 4.50789 194.433 4.69253 194.787 5.06182C195.157 5.43111 195.341 5.9081 195.341 6.49281C195.341 7.07751 195.157 7.55451 194.787 7.9238C194.433 8.29308 193.972 8.47773 193.402 8.47773C192.849 8.47773 192.387 8.29308 192.018 7.9238C191.664 7.53912 191.487 7.06213 191.487 6.49281C191.487 5.9081 191.664 5.43111 192.018 5.06182C192.387 4.69253 192.849 4.50789 193.402 4.50789ZM206.437 13.6708C205.76 13.2862 205.091 12.9938 204.429 12.7938C203.768 12.5784 203.175 12.4706 202.652 12.4706C202.221 12.4706 201.875 12.5476 201.614 12.7015C201.352 12.8553 201.221 13.0861 201.221 13.3939C201.221 13.7324 201.398 13.994 201.752 14.1786C202.106 14.3632 202.683 14.571 203.483 14.8018C204.36 15.0634 205.083 15.3249 205.653 15.5865C206.222 15.8327 206.714 16.2097 207.13 16.7175C207.545 17.2098 207.753 17.8638 207.753 18.6793C207.753 19.9102 207.276 20.8719 206.322 21.5643C205.383 22.2414 204.175 22.5799 202.698 22.5799C201.683 22.5799 200.706 22.4337 199.767 22.1414C198.828 21.8336 198.013 21.4028 197.321 20.8489L198.475 18.4485C199.105 18.9409 199.806 19.3255 200.575 19.6025C201.36 19.8641 202.098 19.9949 202.791 19.9949C203.268 19.9949 203.645 19.9179 203.922 19.7641C204.214 19.5948 204.36 19.3486 204.36 19.0255C204.36 18.6716 204.175 18.3946 203.806 18.1946C203.452 17.9946 202.875 17.7792 202.075 17.5483C201.229 17.3022 200.521 17.056 199.952 16.8098C199.398 16.5636 198.921 16.1943 198.521 15.7019C198.121 15.1941 197.921 14.5402 197.921 13.7401C197.921 12.5091 198.382 11.5551 199.305 10.8781C200.229 10.2011 201.398 9.86256 202.814 9.86256C203.66 9.86256 204.506 9.98565 205.353 10.2318C206.199 10.4626 206.968 10.8012 207.661 11.2474L206.437 13.6708ZM210.131 10.0241H213.685V22.4414H210.131V10.0241ZM211.885 4.50789C212.454 4.50789 212.916 4.69253 213.27 5.06182C213.639 5.43111 213.824 5.9081 213.824 6.49281C213.824 7.07751 213.639 7.55451 213.27 7.9238C212.916 8.29308 212.454 8.47773 211.885 8.47773C211.331 8.47773 210.869 8.29308 210.5 7.9238C210.146 7.53912 209.969 7.06213 209.969 6.49281C209.969 5.9081 210.146 5.43111 210.5 5.06182C210.869 4.69253 211.331 4.50789 211.885 4.50789ZM224.943 9.88564C226.328 9.88564 227.428 10.3165 228.243 11.1781C229.074 12.0398 229.49 13.1938 229.49 14.6402V22.4414H225.935V15.6788C225.935 14.8941 225.712 14.2786 225.266 13.8324C224.835 13.3708 224.243 13.14 223.489 13.14C222.612 13.1554 221.919 13.4631 221.412 14.0632C220.904 14.6479 220.65 15.4019 220.65 16.3251V22.4414H217.095V10.0241H220.65V12.1937C221.512 10.6858 222.943 9.91641 224.943 9.88564ZM244.19 10.0241V21.2874C244.19 22.4568 243.913 23.4723 243.359 24.334C242.805 25.2111 242.028 25.8804 241.028 26.342C240.028 26.819 238.874 27.0575 237.566 27.0575C236.55 27.0575 235.581 26.9113 234.658 26.619C233.75 26.3266 232.919 25.9266 232.165 25.4188L233.481 22.9261C234.65 23.757 235.935 24.1724 237.335 24.1724C238.351 24.1724 239.159 23.9186 239.759 23.4108C240.359 22.9184 240.659 22.2491 240.659 21.4028V19.9949C240.243 20.5796 239.72 21.0258 239.089 21.3335C238.458 21.6413 237.735 21.7952 236.92 21.7952C235.858 21.7952 234.912 21.549 234.081 21.0566C233.265 20.5488 232.627 19.841 232.165 18.9332C231.719 18.0253 231.496 16.979 231.496 15.7942C231.496 14.6248 231.719 13.6016 232.165 12.7245C232.627 11.8321 233.265 11.1397 234.081 10.6473C234.912 10.1549 235.858 9.90872 236.92 9.90872C237.72 9.90872 238.435 10.0703 239.066 10.3934C239.697 10.7011 240.228 11.1397 240.659 11.709V10.0241H244.19ZM237.751 19.0947C238.612 19.0947 239.312 18.8024 239.851 18.2177C240.39 17.6176 240.659 16.8405 240.659 15.8866C240.659 14.9326 240.39 14.1555 239.851 13.5554C239.312 12.9553 238.612 12.6553 237.751 12.6553C236.889 12.6553 236.189 12.9553 235.65 13.5554C235.112 14.1555 234.835 14.9326 234.819 15.8866C234.835 16.8405 235.104 17.6176 235.627 18.2177C236.166 18.8024 236.874 19.0947 237.751 19.0947ZM119.164 35.7858C118.333 35.278 117.449 34.8779 116.51 34.5856C115.587 34.2779 114.794 34.124 114.133 34.124C113.502 34.124 113.002 34.2394 112.633 34.4702C112.263 34.701 112.079 35.0395 112.079 35.4857C112.079 36.055 112.34 36.4936 112.863 36.8013C113.402 37.0937 114.225 37.4014 115.333 37.7245C116.441 38.0477 117.349 38.3708 118.056 38.6939C118.78 39.017 119.395 39.5017 119.903 40.148C120.411 40.7942 120.665 41.6482 120.665 42.7099C120.665 43.7408 120.388 44.6333 119.834 45.3872C119.295 46.1258 118.549 46.6874 117.595 47.0721C116.641 47.4568 115.556 47.6491 114.341 47.6491C113.033 47.6491 111.748 47.4183 110.486 46.9567C109.224 46.4951 108.132 45.8642 107.209 45.0641L108.663 42.0867C109.478 42.8253 110.417 43.4177 111.479 43.8639C112.54 44.3102 113.51 44.5333 114.387 44.5333C115.141 44.5333 115.725 44.3948 116.141 44.1178C116.572 43.8409 116.787 43.4408 116.787 42.9176C116.787 42.5022 116.641 42.1637 116.349 41.9021C116.072 41.6251 115.71 41.402 115.264 41.2328C114.833 41.0635 114.233 40.8712 113.463 40.6558C112.356 40.348 111.448 40.0403 110.74 39.7325C110.048 39.4248 109.447 38.9555 108.94 38.3246C108.432 37.6938 108.178 36.8552 108.178 35.8089C108.178 34.8395 108.44 33.9932 108.963 33.27C109.486 32.5314 110.217 31.9698 111.155 31.5851C112.094 31.1851 113.187 30.985 114.433 30.985C115.541 30.985 116.633 31.1466 117.71 31.4697C118.787 31.7929 119.741 32.2237 120.572 32.7622L119.164 35.7858ZM128.759 34.9087C130.067 34.9087 131.221 35.1703 132.221 35.6935C133.237 36.2166 134.022 36.9552 134.576 37.9092C135.13 38.8632 135.407 39.971 135.407 41.2328C135.407 42.4791 135.13 43.587 134.576 44.5563C134.022 45.5103 133.237 46.2566 132.221 46.7952C131.221 47.3183 130.067 47.5799 128.759 47.5799C127.436 47.5799 126.267 47.3183 125.251 46.7952C124.251 46.2566 123.474 45.5103 122.92 44.5563C122.366 43.587 122.089 42.4791 122.089 41.2328C122.089 39.971 122.366 38.8632 122.92 37.9092C123.474 36.9552 124.251 36.2166 125.251 35.6935C126.267 35.1703 127.436 34.9087 128.759 34.9087ZM128.759 37.863C127.836 37.863 127.082 38.1784 126.497 38.8093C125.928 39.4402 125.643 40.2634 125.643 41.2789C125.643 42.2945 125.928 43.1177 126.497 43.7485C127.082 44.3794 127.836 44.6948 128.759 44.6948C129.667 44.6948 130.406 44.3794 130.975 43.7485C131.56 43.1177 131.852 42.2945 131.852 41.2789C131.852 40.2634 131.56 39.4402 130.975 38.8093C130.406 38.1784 129.667 37.863 128.759 37.863ZM137.872 30.3157H141.426V47.4414H137.872V30.3157ZM156.786 35.0241V47.4414H153.254V45.2488C152.408 46.8028 151.023 47.5799 149.1 47.5799C147.73 47.5799 146.638 47.1567 145.822 46.3105C145.022 45.4488 144.622 44.2871 144.622 42.8253V35.0241H148.177V41.8098C148.177 42.5945 148.384 43.21 148.8 43.6562C149.215 44.1024 149.785 44.3255 150.508 44.3255C151.354 44.3102 152.023 44.0101 152.516 43.4254C153.008 42.8407 153.254 42.0867 153.254 41.1635V35.0241H156.786ZM167.914 46.749C167.452 47.026 166.937 47.2414 166.368 47.3952C165.814 47.5337 165.252 47.603 164.683 47.603C163.529 47.603 162.59 47.2721 161.867 46.6105C161.144 45.9489 160.782 45.0026 160.782 43.7716V38.0246H159.051V35.5781H160.782V32.1621H164.314V35.5781H167.683V38.0477H164.314V43.1715C164.314 44.1255 164.691 44.6025 165.444 44.6025C165.968 44.6025 166.545 44.4486 167.176 44.1409L167.914 46.749ZM170.056 35.0241H173.61V47.4414H170.056V35.0241ZM171.81 29.5079C172.379 29.5079 172.841 29.6925 173.194 30.0618C173.564 30.4311 173.748 30.9081 173.748 31.4928C173.748 32.0775 173.564 32.5545 173.194 32.9238C172.841 33.2931 172.379 33.4777 171.81 33.4777C171.256 33.4777 170.794 33.2931 170.425 32.9238C170.071 32.5391 169.894 32.0621 169.894 31.4928C169.894 30.9081 170.071 30.4311 170.425 30.0618C170.794 29.6925 171.256 29.5079 171.81 29.5079ZM182.629 34.9087C183.937 34.9087 185.091 35.1703 186.091 35.6935C187.106 36.2166 187.891 36.9552 188.445 37.9092C188.999 38.8632 189.276 39.971 189.276 41.2328C189.276 42.4791 188.999 43.587 188.445 44.5563C187.891 45.5103 187.106 46.2566 186.091 46.7952C185.091 47.3183 183.937 47.5799 182.629 47.5799C181.305 47.5799 180.136 47.3183 179.121 46.7952C178.12 46.2566 177.343 45.5103 176.789 44.5563C176.235 43.587 175.959 42.4791 175.959 41.2328C175.959 39.971 176.235 38.8632 176.789 37.9092C177.343 36.9552 178.12 36.2166 179.121 35.6935C180.136 35.1703 181.305 34.9087 182.629 34.9087ZM182.629 37.863C181.706 37.863 180.952 38.1784 180.367 38.8093C179.798 39.4402 179.513 40.2634 179.513 41.2789C179.513 42.2945 179.798 43.1177 180.367 43.7485C180.952 44.3794 181.706 44.6948 182.629 44.6948C183.537 44.6948 184.275 44.3794 184.844 43.7485C185.429 43.1177 185.722 42.2945 185.722 41.2789C185.722 40.2634 185.429 39.4402 184.844 38.8093C184.275 38.1784 183.537 37.863 182.629 37.863ZM199.473 34.8856C200.858 34.8856 201.958 35.3165 202.774 36.1781C203.605 37.0398 204.02 38.1938 204.02 39.6402V47.4414H200.466V40.6788C200.466 39.8941 200.243 39.2786 199.796 38.8324C199.365 38.3708 198.773 38.14 198.019 38.14C197.142 38.1554 196.45 38.4631 195.942 39.0632C195.434 39.6479 195.18 40.4019 195.18 41.3251V47.4414H191.626V35.0241H195.18V37.1937C196.042 35.6858 197.473 34.9164 199.473 34.8856ZM214.912 38.6708C214.235 38.2862 213.566 37.9938 212.904 37.7938C212.243 37.5784 211.65 37.4706 211.127 37.4706C210.696 37.4706 210.35 37.5476 210.088 37.7015C209.827 37.8553 209.696 38.0861 209.696 38.3939C209.696 38.7324 209.873 38.994 210.227 39.1786C210.581 39.3632 211.158 39.571 211.958 39.8018C212.835 40.0634 213.558 40.3249 214.127 40.5865C214.697 40.8327 215.189 41.2097 215.605 41.7175C216.02 42.2098 216.228 42.8638 216.228 43.6793C216.228 44.9102 215.751 45.8719 214.797 46.5643C213.858 47.2414 212.65 47.5799 211.173 47.5799C210.158 47.5799 209.181 47.4337 208.242 47.1414C207.303 46.8336 206.488 46.4028 205.795 45.8489L206.949 43.4485C207.58 43.9409 208.28 44.3255 209.05 44.6025C209.835 44.8641 210.573 44.9949 211.265 44.9949C211.742 44.9949 212.119 44.9179 212.396 44.7641C212.689 44.5948 212.835 44.3486 212.835 44.0255C212.835 43.6716 212.65 43.3946 212.281 43.1946C211.927 42.9946 211.35 42.7792 210.55 42.5483C209.704 42.3022 208.996 42.056 208.427 41.8098C207.873 41.5636 207.396 41.1943 206.996 40.7019C206.596 40.1941 206.396 39.5402 206.396 38.7401C206.396 37.5091 206.857 36.5551 207.78 35.8781C208.704 35.2011 209.873 34.8626 211.289 34.8626C212.135 34.8626 212.981 34.9857 213.827 35.2318C214.674 35.4626 215.443 35.8012 216.135 36.2474L214.912 38.6708Z" fill="white"/>
<defs>
<linearGradient id="paint0_linear_538_658" x1="0" y1="8.41639" x2="45.2605" y2="8.41639" gradientUnits="userSpaceOnUse">
<stop stop-color="#067DF9"/>
<stop offset="1" stop-color="white"/>
</linearGradient>
<clipPath id="clip0_538_658">
<rect width="86.5517" height="66.3563" fill="white" transform="translate(0 1.44141)"/>
</clipPath>
</defs>
</svg>
